<?xml version="1.0" encoding="utf-8"?>
<!-- Generator: Adobe Illustrator 16.0.0, SVG Export Plug-In . SVG Version: 6.00 Build 0)  -->
<!DOCTYPE svg PUBLIC "-//W3C//DTD SVG 1.1//EN" "http://www.w3.org/Graphics/SVG/1.1/DTD/svg11.dtd">
<svg version="1.1" id="Layer_1" xmlns="http://www.w3.org/2000/svg" xmlns:xlink="http://www.w3.org/1999/xlink" x="0px" y="0px"
	 width="100px" height="100px" viewBox="0 0 100 100" enable-background="new 0 0 100 100" xml:space="preserve">
<path fill="none" stroke="#010101" stroke-width="4" stroke-miterlimit="10" d="M89.838,48.628c0-6.153,2.796-11.653,7.186-15.3
	c-0.684-1.929-1.483-3.803-2.39-5.615c-0.899,0.125-1.815,0.193-2.747,0.193c-10.981,0-19.883-8.902-19.883-19.882
	c0-0.916,0.067-1.814,0.188-2.697c-2.101-1.046-4.286-1.947-6.542-2.692c-3.641,4.637-9.292,7.619-15.645,7.619
	c-6.352,0-12.003-2.982-15.643-7.619c-2.252,0.743-4.434,1.643-6.531,2.686c0.12,0.884,0.188,1.786,0.188,2.703
	c0,10.98-8.901,19.882-19.883,19.882c-0.936,0-1.855-0.069-2.757-0.195c-1.068,2.133-1.987,4.352-2.744,6.645
	c4.635,3.64,7.616,9.291,7.616,15.643c0,6.354-2.983,12.005-7.622,15.645c0.741,2.247,1.639,4.425,2.678,6.518
	c0.925-0.131,1.869-0.203,2.829-0.203c10.981,0,19.883,8.901,19.883,19.883c0,0.967-0.073,1.916-0.207,2.847
	c2.1,1.044,4.282,1.947,6.536,2.691c3.64-4.646,9.297-7.637,15.657-7.637s12.018,2.99,15.657,7.637
	c2.259-0.746,4.444-1.65,6.548-2.697c-0.134-0.929-0.206-1.875-0.206-2.841c0-10.981,8.901-19.883,19.883-19.883
	c0.956,0,1.896,0.072,2.817,0.202c1.215-2.446,2.235-5.007,3.04-7.66C92.94,60.87,89.838,55.112,89.838,48.628z"/>
<circle fill="none" stroke="#010101" stroke-width="4" stroke-miterlimit="10" cx="49.995" cy="50.007" r="9.446"/>
</svg>
