<svg version="1.1" id="Layer_1" xmlns="http://www.w3.org/2000/svg" xmlns:xlink="http://www.w3.org/1999/xlink" x="0px" y="0px"
	 width="100px" height="100px" viewBox="0 0 100 100" enable-background="new 0 0 100 100" xml:space="preserve">
<path fill="#fff" d="M96.504,1.475c-1.445-1.195-3.357-1.686-5.195-1.331L32.551,11.425c-2.965,0.569-5.108,3.163-5.108,6.181
	v44.803c-2.127-0.803-4.418-1.263-6.821-1.263c-10.704,0-19.411,8.71-19.411,19.412S9.918,99.97,20.622,99.97
	c10.704,0,19.412-8.709,19.412-19.411v-57.75l46.164-8.862v37.185c-2.123-0.803-4.416-1.262-6.818-1.262
	c-10.705,0-19.412,8.708-19.412,19.412c0,10.702,8.707,19.411,19.412,19.411c10.703,0,19.41-8.709,19.41-19.411V6.329
	C98.789,4.451,97.951,2.671,96.504,1.475z M20.622,87.38c-3.762,0-6.821-3.059-6.821-6.819c0-3.762,3.059-6.82,6.821-6.82
	c3.761,0,6.821,3.059,6.821,6.82C27.443,84.321,24.383,87.38,20.622,87.38z M79.379,76.101c-3.762,0-6.82-3.06-6.82-6.819
	c0-3.762,3.059-6.822,6.82-6.822c3.76,0,6.818,3.061,6.818,6.822C86.197,73.041,83.139,76.101,79.379,76.101z"/>
</svg>
