<svg xmlns="http://www.w3.org/2000/svg" xmlns:xlink="http://www.w3.org/1999/xlink" version="1.1" id="Isolation_Mode" x="0px" y="0px" viewBox="0 0 32 32" enable-background="new 0 0 32 32" xml:space="preserve">
    <path fill="rgba(255,255,255,0.8)" d="M16,6.287c-5.972,0-11.377,2.42-15.292,6.335L2.6,14.514c3.433-3.433,8.173-5.56,13.4-5.56  c5.227,0,9.967,2.127,13.4,5.56l1.892-1.892C27.377,8.707,21.973,6.287,16,6.287z"></path>
    <path fill="rgba(255,255,255,0.8)" d="M5.011,16.921l1.891,1.892c2.331-2.333,5.549-3.776,9.099-3.776s6.769,1.444,9.099,3.776l1.892-1.892  c-2.812-2.812-6.697-4.552-10.989-4.552s-8.177,1.74-10.989,4.552H5.011z"></path>
    <path fill="#0092FF" d="M9.312,21.225l1.888,1.887c1.229-1.229,2.927-1.991,4.8-1.991s3.57,0.763,4.8,1.991l1.888-1.887  c-1.711-1.711-4.076-2.771-6.688-2.771C13.388,18.453,11.024,19.514,9.312,21.225z"></path>
    <circle fill="#0092FF" cx="16" cy="26" r="2"></circle>
</svg>